<?xml version="1.0" encoding="utf-8"?>
<!-- Generator: Adobe Illustrator 24.0.0, SVG Export Plug-In . SVG Version: 6.00 Build 0)  -->
<svg version="1.1" id="Layer_1" xmlns="http://www.w3.org/2000/svg" xmlns:xlink="http://www.w3.org/1999/xlink" x="0px" y="0px"
	 viewBox="0 0 1639.9 198.1" style="enable-background:new 0 0 1639.9 198.1;" xml:space="preserve">
<style type="text/css">
	.st0{fill:url(#SVGID_1_);}
	.st1{fill:url(#SVGID_2_);}
</style>
<title>footer_r_bg</title>
<g id="Layer_2_1_">
	<g id="Layer_1-2">
		
			<linearGradient id="SVGID_1_" gradientUnits="userSpaceOnUse" x1="17.34" y1="117.6111" x2="17.34" y2="93.5511" gradientTransform="matrix(1 0 0 -1 0 225.3617)">
			<stop  offset="0" style="stop-color:#FF636E"/>
			<stop  offset="1" style="stop-color:#F98D6C"/>
		</linearGradient>
		<path class="st0" d="M0,121.9c0-9.6,7.8-17.3,17.3-17.3s17.3,7.8,17.3,17.3s-7.8,17.3-17.3,17.3C7.8,139.2,0,131.4,0,121.9z
			 M7.8,121.9c0,5.3,4.3,9.6,9.6,9.6s9.6-4.3,9.6-9.6s-4.3-9.6-9.6-9.6C12,112.3,7.8,116.6,7.8,121.9z"/>
		
			<linearGradient id="SVGID_2_" gradientUnits="userSpaceOnUse" x1="1474.8601" y1="58.6811" x2="1474.8601" y2="34.6111" gradientTransform="matrix(1 0 0 -1 0 225.3617)">
			<stop  offset="0" style="stop-color:#FF636E"/>
			<stop  offset="1" style="stop-color:#F98D6C"/>
		</linearGradient>
		<path class="st1" d="M1457.5,180.8c0-9.6,7.8-17.3,17.3-17.3c9.6,0,17.3,7.8,17.3,17.3s-7.8,17.3-17.3,17.3l0,0
			C1465.3,198.1,1457.5,190.4,1457.5,180.8z M1465.3,180.8c0,5.3,4.3,9.6,9.6,9.6c5.3,0,9.6-4.3,9.6-9.6c0-5.3-4.3-9.6-9.6-9.6l0,0
			C1469.6,171.2,1465.3,175.5,1465.3,180.8z"/>
	</g>
</g>
</svg>
