<?xml version="1.0" encoding="utf-8"?>
<!-- Generator: Adobe Illustrator 24.0.0, SVG Export Plug-In . SVG Version: 6.00 Build 0)  -->
<svg version="1.1" id="Layer_1" xmlns="http://www.w3.org/2000/svg" xmlns:xlink="http://www.w3.org/1999/xlink" x="0px" y="0px"
	 viewBox="0 0 118 29.3" style="enable-background:new 0 0 118 29.3;" xml:space="preserve">
<style type="text/css">
	.st0{enable-background:new    ;}
	.st1{fill:#FCAE61;}
	.st2{fill:#242F51;}
</style>
<g class="st0">
	<path class="st1" d="M23,22.9h-5l-2-5.2H6.8l-1.9,5.2H0L8.9,0h4.9L23,22.9z M14.5,13.9l-3.2-8.5l-3.1,8.5H14.5z"/>
	<path class="st1" d="M25.3,6.3h4.1v2.4c0.5-0.8,1.3-1.5,2.2-2s1.9-0.8,3-0.8c1.9,0,3.6,0.8,4.9,2.3s2,3.6,2,6.3
		c0,2.8-0.7,4.9-2,6.5c-1.4,1.5-3,2.3-4.9,2.3c-0.9,0-1.7-0.2-2.5-0.5c-0.7-0.4-1.5-1-2.4-1.9v8.4h-4.4V6.3z M29.7,14.3
		c0,1.9,0.4,3.2,1.1,4.1c0.7,0.9,1.6,1.3,2.7,1.3c1,0,1.9-0.4,2.5-1.2s1-2.2,1-4c0-1.7-0.3-3-1-3.9c-0.7-0.8-1.6-1.3-2.6-1.3
		c-1.1,0-2,0.4-2.7,1.2C30,11.5,29.7,12.7,29.7,14.3z"/>
	<path class="st1" d="M44.9,6.3H49v2.4c0.5-0.8,1.3-1.5,2.2-2c0.9-0.5,1.9-0.8,3-0.8c1.9,0,3.6,0.8,4.9,2.3s2,3.6,2,6.3
		c0,2.8-0.7,4.9-2,6.5c-1.4,1.5-3,2.3-4.9,2.3c-0.9,0-1.7-0.2-2.5-0.5c-0.7-0.4-1.5-1-2.4-1.9v8.4h-4.4V6.3z M49.2,14.3
		c0,1.9,0.4,3.2,1.1,4.1c0.7,0.9,1.6,1.3,2.7,1.3c1,0,1.9-0.4,2.5-1.2s1-2.2,1-4c0-1.7-0.3-3-1-3.9C54.9,9.8,54,9.4,53,9.4
		c-1.1,0-2,0.4-2.7,1.2C49.6,11.5,49.2,12.7,49.2,14.3z"/>
</g>
<g class="st0">
	<path class="st2" d="M64.7,22.9V0.2h4.6v18.9h11.5v3.9H64.7z"/>
	<path class="st2" d="M87.4,11.4l-4-0.7c0.4-1.6,1.2-2.8,2.3-3.6s2.7-1.2,4.9-1.2c2,0,3.4,0.2,4.4,0.7c1,0.5,1.6,1.1,2,1.8
		c0.4,0.7,0.6,2,0.6,3.9l0,5.1c0,1.5,0.1,2.5,0.2,3.2c0.1,0.7,0.4,1.4,0.8,2.2h-4.3c-0.1-0.3-0.3-0.7-0.4-1.3
		c-0.1-0.3-0.1-0.4-0.2-0.5c-0.8,0.7-1.6,1.3-2.4,1.6c-0.9,0.4-1.8,0.5-2.7,0.5c-1.7,0-3.1-0.5-4-1.4c-1-0.9-1.5-2.1-1.5-3.5
		c0-0.9,0.2-1.8,0.7-2.5c0.4-0.7,1.1-1.3,1.9-1.7c0.8-0.4,2-0.7,3.5-1c2.1-0.4,3.5-0.7,4.3-1.1v-0.4c0-0.8-0.2-1.4-0.6-1.8
		c-0.4-0.4-1.2-0.5-2.4-0.5c-0.8,0-1.4,0.2-1.8,0.5C88.1,10.1,87.7,10.6,87.4,11.4z M93.3,15c-0.6,0.2-1.5,0.4-2.7,0.7
		c-1.2,0.3-2,0.5-2.4,0.8c-0.6,0.4-0.9,0.9-0.9,1.5c0,0.6,0.2,1.1,0.7,1.6c0.5,0.4,1,0.7,1.8,0.7c0.8,0,1.5-0.3,2.3-0.8
		c0.5-0.4,0.9-0.9,1-1.5c0.1-0.4,0.2-1.1,0.2-2.1V15z"/>
	<path class="st2" d="M101.8,22.9V0h4.4v8.3c1.4-1.5,3-2.3,4.8-2.3c2,0,3.7,0.7,5,2.2c1.3,1.5,2,3.6,2,6.3c0,2.8-0.7,5-2,6.6
		c-1.3,1.5-3,2.3-4.9,2.3c-0.9,0-1.9-0.2-2.8-0.7c-0.9-0.5-1.7-1.2-2.4-2.1v2.4H101.8z M106.1,14.3c0,1.7,0.3,3,0.8,3.8
		c0.8,1.2,1.8,1.8,3,1.8c1,0,1.8-0.4,2.5-1.2c0.7-0.8,1-2.1,1-3.9c0-1.9-0.3-3.3-1-4.1c-0.7-0.8-1.6-1.3-2.6-1.3
		c-1.1,0-1.9,0.4-2.6,1.2C106.5,11.4,106.1,12.6,106.1,14.3z"/>
</g>
</svg>
